<svg xmlns="http://www.w3.org/2000/svg" viewBox="0 0 15.1 3.04"><defs><style>.cls-1{fill:#fff;}.cls-2{fill:#80b541;}</style></defs><g id="Layer_2" data-name="Layer 2"><g id="Graphics"><polygon class="cls-1" points="3.12 1.75 3.44 1.75 3.67 2.51 3.67 2.51 3.88 1.75 4.12 1.75 4.32 2.51 4.32 2.51 4.55 1.75 4.87 1.75 4.41 3 4.23 3 4 2.19 3.99 2.19 3.76 3 3.57 3 3.12 1.75"/><path class="cls-1" d="M5.18,2.51a.35.35,0,0,0,.34.25.31.31,0,0,0,.29-.16h.31a.64.64,0,0,1-.6.44.66.66,0,0,1-.66-.66.67.67,0,0,1,.66-.68.65.65,0,0,1,.64.66.61.61,0,0,1,0,.15Zm.68-.24A.34.34,0,0,0,5.52,2a.35.35,0,0,0-.35.29Z"/><path class="cls-1" d="M7.59,3H7.32V2.84a.65.65,0,0,1-.44.2.62.62,0,0,1-.6-.67.62.62,0,0,1,.62-.66.53.53,0,0,1,.41.2h0V1.75h.27ZM6.94,2a.38.38,0,0,0-.37.4.37.37,0,1,0,.74,0A.37.37,0,0,0,6.94,2"/><polygon class="cls-1" points="7.9 2.02 7.75 2.02 7.75 1.75 7.9 1.75 7.9 1.34 8.2 1.34 8.2 1.75 8.38 1.75 8.38 2.02 8.2 2.02 8.2 3 7.9 3 7.9 2.02"/><path class="cls-1" d="M8.5,1.34h.3v.5a.43.43,0,0,1,.32-.13.5.5,0,0,1,.38.19.63.63,0,0,1,.1.39V3H9.31V2.36c0-.14,0-.38-.26-.38s-.25.28-.25.38V3H8.5Z"/><path class="cls-1" d="M10.05,2.51a.36.36,0,0,0,.34.25.29.29,0,0,0,.29-.16H11a.65.65,0,0,1-1.26-.22.67.67,0,0,1,.65-.68.66.66,0,0,1,.65.66.61.61,0,0,1,0,.15Zm.68-.24A.33.33,0,0,0,10.39,2a.36.36,0,0,0-.35.29Z"/><path class="cls-1" d="M11.19,1.75h.27v.11h0c0-.08.11-.11.26-.11h0V2c-.27,0-.27.2-.27.28V3h-.3Z"/><polygon class="cls-1" points="12 2.02 11.86 2.02 11.86 1.75 12 1.75 12 1.34 12.3 1.34 12.3 1.75 12.48 1.75 12.48 2.02 12.3 2.02 12.3 3 12 3 12 2.02"/><path class="cls-1" d="M12.87,2.51a.35.35,0,0,0,.34.25.28.28,0,0,0,.28-.16h.32a.64.64,0,0,1-.6.44.66.66,0,0,1-.66-.66.67.67,0,0,1,.66-.68.65.65,0,0,1,.64.66.61.61,0,0,1,0,.15Zm.67-.24A.32.32,0,0,0,13.21,2a.35.35,0,0,0-.35.29Z"/><polygon class="cls-1" points="14.3 2.35 13.91 1.75 14.25 1.75 14.47 2.13 14.7 1.75 15.04 1.75 14.65 2.35 15.1 3 14.74 3 14.47 2.57 14.21 3 13.86 3 14.3 2.35"/><path class="cls-2" d="M2.39,0a.15.15,0,0,0-.15.15V2.7H.3V1.84l.83-.59.65.47a.15.15,0,0,0,.21,0,.14.14,0,0,0,0-.2L1.22.94a.17.17,0,0,0-.17,0l-1,.7A.14.14,0,0,0,0,1.76V2.85A.15.15,0,0,0,.15,3H2.39a.15.15,0,0,0,.15-.15V.15A.15.15,0,0,0,2.39,0"/><path class="cls-2" d="M2.05.92h0V.87c0-.31-.24-.5-.62-.5h0v0c0,.3.25.51.62.51"/><path class="cls-2" d="M3.31.37c-.39,0-.63.19-.63.5V.92h0c.38,0,.63-.21.63-.51v0Z"/></g></g></svg>